HIERARCHY
ROOT root
{
	OFFSET	0	13.1	24.9
	CHANNELS 6  Xposition Yposition Zposition Xrotation Yrotation Zrotation
	JOINT spine_1
	{
		OFFSET	0	9.99999	0
		CHANNELS 3  Xrotation Yrotation Zrotation
		JOINT spine_2
		{
			OFFSET	0	112	-10
			CHANNELS 3  Xrotation Yrotation Zrotation
			JOINT spine_3
			{
				OFFSET	0	206.5	19.3
				CHANNELS 3  Xrotation Yrotation Zrotation
				JOINT spine_4
				{
					OFFSET	0	110.4	14.6
					CHANNELS 3  Xrotation Yrotation Zrotation
					JOINT neck_1
					{
						OFFSET	0	71.8	-50.3
						CHANNELS 3  Xrotation Yrotation Zrotation
						JOINT neck_2
						{
							OFFSET	0	86.2	-25.8
							CHANNELS 3  Xrotation Yrotation Zrotation
							JOINT head_ee
							{
								OFFSET	0	179.8	-8.7
								CHANNELS 3  Xrotation Yrotation Zrotation
								End Site
								{
									OFFSET	1	0	0
								}
							}
						}
					}
					JOINT left_clavicle
					{
						OFFSET	-43.2	22.4	-70.8
						CHANNELS 3  Xrotation Yrotation Zrotation
						JOINT left_shoulder
						{
							OFFSET	-93.9	-5.79999	48.7
							CHANNELS 3  Xrotation Yrotation Zrotation
							JOINT left_elbow
							{
								OFFSET	-291.4	-30.8	15.2
								CHANNELS 3  Xrotation Yrotation Zrotation
								JOINT left_lowarm_twist
								{
									OFFSET	-110.7	-3.89999	13.6
									CHANNELS 3  Xrotation Yrotation Zrotation
									JOINT left_hand
									{
										OFFSET	-110.7	-3.89999	13.6
										CHANNELS 3  Xrotation Yrotation Zrotation
										JOINT left_ee
										{
											OFFSET	-80.8	-5.10001	12.1
											CHANNELS 3  Xrotation Yrotation Zrotation
											End Site
											{
												OFFSET	1	0	0
											}
										}
									}
								}
							}
						}
					}
					JOINT right_clavicle
					{
						OFFSET	43.2	22.4	-70.8
						CHANNELS 3  Xrotation Yrotation Zrotation
						JOINT right_shoulder
						{
							OFFSET	93.9	-5.79999	48.7
							CHANNELS 3  Xrotation Yrotation Zrotation
							JOINT right_elbow
							{
								OFFSET	291.4	-30.8	15.2
								CHANNELS 3  Xrotation Yrotation Zrotation
								JOINT right_lowarm_twist
								{
									OFFSET	110.7	-3.89999	13.6
									CHANNELS 3  Xrotation Yrotation Zrotation
									JOINT right_hand
									{
										OFFSET	110.7	-3.89999	13.6
										CHANNELS 3  Xrotation Yrotation Zrotation
										JOINT right_ee
										{
											OFFSET	80.8	-5.10001	12.1
											CHANNELS 3  Xrotation Yrotation Zrotation
											End Site
											{
												OFFSET	1	0	0
											}
										}
									}
								}
							}
						}
					}
				}
			}
		}
	}
	JOINT left_hip
	{
		OFFSET	-82.8	-127.5	0.300001
		CHANNELS 3  Xrotation Yrotation Zrotation
		JOINT left_knee
		{
			OFFSET	-28.2	-396.7	2.2
			CHANNELS 3  Xrotation Yrotation Zrotation
			JOINT left_ankle
			{
				OFFSET	-11.7	-411.3	35.4
				CHANNELS 3  Xrotation Yrotation Zrotation
				JOINT left_toes
				{
					OFFSET	0	-60	-88.6
					CHANNELS 3  Xrotation Yrotation Zrotation
					JOINT left_foot_ee
					{
						OFFSET	-22.5	-16.5	-42.2
						CHANNELS 3  Xrotation Yrotation Zrotation
						End Site
						{
							OFFSET	1	0	0
						}
					}
				}
			}
		}
	}
	JOINT right_hip
	{
		OFFSET	82.8	-127.5	0.300001
		CHANNELS 3  Xrotation Yrotation Zrotation
		JOINT right_knee
		{
			OFFSET	28.2	-396.7	2.2
			CHANNELS 3  Xrotation Yrotation Zrotation
			JOINT right_ankle
			{
				OFFSET	11.7	-411.3	35.4
				CHANNELS 3  Xrotation Yrotation Zrotation
				JOINT right_toes
				{
					OFFSET	0	-60	-88.6
					CHANNELS 3  Xrotation Yrotation Zrotation
					JOINT right_foot_ee
					{
						OFFSET	22.5	-16.5	-42.2
						CHANNELS 3  Xrotation Yrotation Zrotation
						End Site
						{
							OFFSET	1	0	0
						}
					}
				}
			}
		}
	}
}
MOTION
Frames: 6
Frame Time: 0.02
2800.94 716.97 -1473.77 -1.24865642249 54.934281068 -7.58876217935 0.7776 0.654737 4.38505 0.788216 0.374657 4.41773 0.820392 -0.499797 4.40536 0.793376 0.201514 4.42899 -6.64784 16.8945 -4.4546 -6.49829 34.5667 -1.09275 -0.0 0.0 -0.0 2.26316 12.1364 5.22135 6.54241 -15.6615 42.933 2.9154 -55.2895 1.52727 -49.7993 -4.04829 4.67237 -2.75547 17.0333 -9.92638 -0.0 0.0 -0.0 12.6869 19.6716 -25.5411 -16.4973 -1.23504 -68.7186 0.481975 13.4285 -0.056741 57.5125 1.55754 6.87377 -6.04441 -22.6884 27.1088 0.0 0.0 0.0 -20.0835 7.43278 20.7091 -1.28678 0.0508409 0.190926 38.3586 11.8417 -4.74474 -24.8848 0.0 0.0 -0.0 0.0 -0.0 29.7277 9.0708 -7.20177 1.24198 0.0531322 0.183175 -5.51299 -4.7768 -0.817943 7.1115 -0.0 -0.0 0.0 0.0 0.0 
2742.43113827 721.634 -1489.21334159 -1.56069975668 58.3220739627 -7.14552503961 0.830279 0.821215 4.40044 0.840886 0.539823 4.44366 0.886175 -0.337318 4.46356 0.858574 0.371131 4.46088 -3.30141 15.2359 -7.96659 -2.46433 33.851 -6.21387 -0.0 0.0 -0.0 1.79026 14.148 4.57328 -0.877729 -15.4869 46.732 2.59977 -52.1623 1.27272 -49.6133 -4.02654 4.66253 -1.66786 12.0019 -5.61376 -0.0 0.0 -0.0 12.9548 20.1523 -26.1293 -14.0353 0.205291 -68.6685 0.692713 18.9397 -0.115547 56.8305 1.50002 6.80797 -6.23132 -23.3183 27.8255 0.0 0.0 0.0 -18.3518 6.72644 18.9203 -9.48382 0.27279 1.42825 39.4073 10.8622 -4.83087 -25.431 0.0 0.0 -0.0 0.0 -0.0 26.9746 10.6244 -6.16469 -0.922223 -0.0368734 -0.136722 -11.913 4.05059 -1.8254 6.17929 -0.0 -0.0 0.0 0.0 0.0 
2742.83444497 721.634 -1490.66757894 -1.50053441459 56.8936462868 -7.21677156257 0.830279 0.821215 4.40044 0.840886 0.539823 4.44366 0.886175 -0.337318 4.46356 0.858574 0.371131 4.46088 -3.30141 15.2359 -7.96659 -2.46433 33.851 -6.21387 -0.0 0.0 -0.0 1.79026 14.148 4.57328 -0.877729 -15.4869 46.732 2.59977 -52.1623 1.27272 -49.6133 -4.02654 4.66253 -1.66786 12.0019 -5.61376 -0.0 0.0 -0.0 12.9548 20.1523 -26.1293 -14.0353 0.205291 -68.6685 0.692713 18.9397 -0.115547 56.8305 1.50002 6.80797 -6.23132 -23.3183 27.8255 0.0 0.0 0.0 -18.3518 6.72644 18.9203 -9.48382 0.27279 1.42825 39.4073 10.8622 -4.83087 -25.431 0.0 0.0 -0.0 0.0 -0.0 26.9746 10.6244 -6.16469 -0.922223 -0.0368734 -0.136722 -11.913 4.05059 -1.8254 6.17929 -0.0 -0.0 0.0 0.0 0.0 
2743.10505291 721.634 -1491.57175821 -1.4656593859 56.0003043812 -7.25861824882 0.830279 0.821215 4.40044 0.840886 0.539823 4.44366 0.886175 -0.337318 4.46356 0.858574 0.371131 4.46088 -3.30141 15.2359 -7.96659 -2.46433 33.851 -6.21387 -0.0 0.0 -0.0 1.79026 14.148 4.57328 -0.877729 -15.4869 46.732 2.59977 -52.1623 1.27272 -49.6133 -4.02654 4.66253 -1.66786 12.0019 -5.61376 -0.0 0.0 -0.0 12.9548 20.1523 -26.1293 -14.0353 0.205291 -68.6685 0.692713 18.9397 -0.115547 56.8305 1.50002 6.80797 -6.23132 -23.3183 27.8255 0.0 0.0 0.0 -18.3518 6.72644 18.9203 -9.48382 0.27279 1.42825 39.4073 10.8622 -4.83087 -25.431 0.0 0.0 -0.0 0.0 -0.0 26.9746 10.6244 -6.16469 -0.922223 -0.0368734 -0.136722 -11.913 4.05059 -1.8254 6.17929 -0.0 -0.0 0.0 0.0 0.0 
2726.25681169 725.086 -1495.4214176 -1.43742279213 56.8437786876 -7.64737908064 0.795108 0.882018 4.60509 0.80671 0.587523 4.65174 0.858305 -0.333342 4.67678 0.828027 0.408625 4.67082 -2.32917 14.7042 -9.4323 -1.22598 33.9544 -8.21664 -0.0 0.0 -0.0 1.74405 14.6369 4.533 -4.01257 -15.2681 47.6671 2.32774 -49.0601 1.0624 -48.5431 -3.90203 4.60454 -1.20371 10.5894 -3.30529 -0.0 0.0 -0.0 12.9356 20.1975 -26.0813 -13.9877 0.432697 -69.092 0.773759 20.9716 -0.143212 56.2635 1.4528 6.75274 -6.31674 -23.6829 28.082 0.0 0.0 0.0 -16.6314 6.93614 18.828 -14.7501 0.321222 2.23455 39.5349 9.57708 -4.83246 -25.0546 0.0 0.0 -0.0 0.0 -0.0 26.1342 10.0704 -5.60078 -1.28083 -0.0506156 -0.19004 -11.6132 4.10269 -1.77918 6.45918 -0.0 -0.0 0.0 0.0 0.0 
2726.75280482 725.086 -1497.06426049 -1.39078538427 55.5796523341 -7.70349106469 0.795108 0.882018 4.60509 0.80671 0.587523 4.65174 0.858305 -0.333342 4.67678 0.828027 0.408625 4.67082 -2.32917 14.7042 -9.4323 -1.22598 33.9544 -8.21664 -0.0 0.0 -0.0 1.74405 14.6369 4.533 -4.01257 -15.2681 47.6671 2.32774 -49.0601 1.0624 -48.5431 -3.90203 4.60454 -1.20371 10.5894 -3.30529 -0.0 0.0 -0.0 12.9356 20.1975 -26.0813 -13.9877 0.432697 -69.092 0.773759 20.9716 -0.143212 56.2635 1.4528 6.75274 -6.31674 -23.6829 28.082 0.0 0.0 0.0 -16.6314 6.93614 18.828 -14.7501 0.321222 2.23455 39.5349 9.57708 -4.83246 -25.0546 0.0 0.0 -0.0 0.0 -0.0 26.1342 10.0704 -5.60078 -1.28083 -0.0506156 -0.19004 -11.6132 4.10269 -1.77918 6.45918 -0.0 -0.0 0.0 0.0 0.0 
